<?xml version="1.0" encoding="utf-8"?>
<!-- Generator: Adobe Illustrator 18.0.0, SVG Export Plug-In . SVG Version: 6.00 Build 0)  -->
<!DOCTYPE svg PUBLIC "-//W3C//DTD SVG 1.1//EN" "http://www.w3.org/Graphics/SVG/1.1/DTD/svg11.dtd">
<svg version="1.1" xmlns="http://www.w3.org/2000/svg" xmlns:xlink="http://www.w3.org/1999/xlink" x="0px" y="0px"
	 viewBox="0 0 202 75" enable-background="new 0 0 202 75" xml:space="preserve">
<g id="Layer_1">
</g>
<g id="Layer_2">
	<g>
		<circle fill="#EC1C24" cx="37.9" cy="37.5" r="37.5"/>
		<g>
			<defs>
				<circle id="SVGID_27_" cx="37.9" cy="37.5" r="37.5"/>
			</defs>
			<clipPath id="SVGID_2_">
				<use xlink:href="#SVGID_27_"  overflow="visible"/>
			</clipPath>
			<path clip-path="url(#SVGID_2_)" fill="#151643" d="M6.3,36.7c0,0,9.4-6.8,11-6.8s5,0.7,7.3-0.2s8.9,0.9,11.6-0.9
				c2.7-1.8,4.6-4.1,5.5-5c0.9-0.9,5.5-3,5.5-3s6.8-0.4,9.4-1.2s24.9-1.1,24.9-1.1l4.6,22.8L49.9,70.7L15,64.1L6.3,36.7z"/>
			<path clip-path="url(#SVGID_2_)" fill="#2B388F" d="M-1,42.9c0,0,6.2-16.2,6.9-17.1c0.7-0.9,1.6-1.4,5.2,0.9s5.6,1.5,7.3,2.3
				c1.9,0.9,3.6,4.6,6.9,4.6s12.4-0.4,14.8-3s7.1-2.7,9.2-5.5s3.2-5.7,5.2-7.6s5.9-4.4,8-5c2.1-0.5,13.5,3.6,13.5,3.6l13.5,22.8
				l-0.7,28.3L78.6,82.7L48,85.4l-35.9,1.2l-29.9-7.3l0.7-42l9.4-9.1L-1,42.9z"/>
			<path clip-path="url(#SVGID_2_)" fill="#1B75BB" d="M-2.7,41.2c0,0,9.2-3.2,13-3.9s7.8-0.5,10.1-0.5s10.1-4.3,11.9-3.7
				c1.8,0.5,3.7,2,5.7,1.6s3.9-2,7.5-4.1c3.6-2.1,13.7-6.6,16.2-6.6c2.5,0,6.4,1.6,7.6,2.3c1.2,0.7,10.7,4.6,10.7,4.6L79.1,52
				L48.3,77.6L18.8,67L-4.3,52.6L-2.7,41.2z"/>
			<path clip-path="url(#SVGID_2_)" fill="#00ADEE" d="M-27.7,59.9c0,0,36.4-23.3,43.9-25.4s14.3,5.9,14.3,5.9s4.1,3.6,6.7,2.3
				c2.6-1.2,29.7-18,32.9-18c3.2,0,9,3.2,14,6s21,10.7,21,10.7l-4.4,35.9l-67.8,11c0,0-60.8-13.9-60.8-14.8S-27.7,59.9-27.7,59.9z"
				/>
			<path clip-path="url(#SVGID_2_)" fill="#151643" d="M4,55.1c0,0,11.6-5.5,19.9-5s17.1,0.7,21,0s7.1-2.8,15.5-2.3
				s21.3-7.1,21.3-7.1l3.2,6.4l-6,22l-42.9,3l-21.5,2.3L4,55.1z"/>
			<path clip-path="url(#SVGID_2_)" fill="#2B388F" d="M-9,71.9c0,0,13.5-14.4,21.3-16.7s11.6-0.5,15.6-2.1c4.1-1.6,4.4-4.3,9.4-4.3
				s10.1,2.3,13.7,2.3s8.7,2.5,14.4,2.1c5.7-0.4,1.4-1.2,10.1-3.4s15.3-3.4,15.6-2c0.4,1.4-3.2,19.6-3.2,19.6L71.4,82.6l-61.2,3.6
				L-9,71.9z"/>
			<path clip-path="url(#SVGID_2_)" fill="#1B75BB" d="M-4.5,60c0,0,9.6,3.7,13.2,3.6s6-5.2,9.6-5.2s11-5.2,15.8-5.2s14.6,0,17.1,0
				s13.2,2,16.9,2s8.2-2.5,13.7-2.8c5.5-0.4,9.1-11.4,9.4,4.4S89,80.6,89,80.6l-139.9,3L-4.5,60z"/>
			<path clip-path="url(#SVGID_2_)" fill="#00ADEE" d="M-0.8,56c0,0,11.8,7.3,15.8,7.1c4-0.3,5.4-3.7,10.9-3.1
				c5.5,0.6,7.6-4.3,12.4-3.5s18-1.4,18-1.4s8.3,1.3,14,4.4C76,62.6,85.6,62,85.6,62l15.3-2.3c0,0,4.2,13.5,4.3,13
				s-5.8,18.7-6.4,18.8c-0.5,0.1-55.7-1.1-55.7-1.1l-72-2.5l2.3-20.5L-0.8,56z"/>
		</g>
		<path fill="#323031" d="M37.9,73.4C18.1,73.4,2,57.3,2,37.5C2,17.7,18.1,1.6,37.9,1.6c19.8,0,35.9,16.1,35.9,35.9
			C73.8,57.3,57.7,73.4,37.9,73.4z M37.9,2.9C18.8,2.9,3.3,18.4,3.3,37.5c0,19.1,15.5,34.6,34.6,34.6c19.1,0,34.6-15.5,34.6-34.6
			C72.5,18.4,57,2.9,37.9,2.9z"/>
		<g>
			<path fill="#FFFFFF" d="M145.7,23.4c0-1.4-0.2-2.4-0.6-2.9c-0.4-0.5-1.3-0.8-2.8-0.9c-0.6-0.1-0.8-0.4-0.8-0.8
				c0-0.3,0-0.6,0.1-0.9c0.6,0,1.3,0,2.2-0.1c0.9-0.1,1.7-0.2,2.3-0.3c0.9-0.1,1.8-0.3,2.5-0.5c0.7-0.2,1.2-0.3,1.6-0.3
				c0.6,0,0.9,0.3,0.9,1v16.1c0,1.1,0.1,2.1,0.2,3c0.1,0.9,0.4,1.7,0.7,2.3c0.3,0.7,0.8,1.2,1.5,1.5c0.6,0.4,1.5,0.5,2.4,0.5
				c1.1,0,2.1-0.2,3.2-0.5c1-0.4,1.9-0.9,2.7-1.6c0.8-0.7,1.4-1.6,1.9-2.6c0.5-1,0.7-2.2,0.7-3.6v-9.4c0-1.4-0.2-2.3-0.6-2.8
				c-0.4-0.5-1.4-0.8-2.9-1c-0.6-0.1-0.8-0.4-0.8-0.8c0-0.3,0-0.6,0.1-0.9c0.6,0,1.3,0,2.2-0.1c0.9-0.1,1.7-0.2,2.4-0.3
				c1-0.1,1.8-0.3,2.5-0.5c0.7-0.2,1.2-0.3,1.6-0.3c0.6,0,0.9,0.3,0.9,1v20.9c0,0.7,0,1.3,0.1,1.8c0.1,0.5,0.3,0.8,0.5,1.1
				c0.3,0.3,0.6,0.5,1.1,0.6c0.5,0.2,1,0.2,1.8,0.3c0.6,0.1,0.8,0.4,0.8,0.8c0,0.3,0,0.6-0.1,0.9c-0.8,0-1.7,0.1-2.6,0.2
				c-0.9,0.1-1.8,0.3-2.6,0.4c-0.8,0.1-1.6,0.3-2.2,0.4c-0.6,0.1-1.1,0.2-1.3,0.2c-0.6,0-0.9-0.3-0.9-1V39c-0.1,0.1-0.5,0.5-1.1,1.2
				c-0.6,0.7-1.4,1.4-2.3,2.2c-1,0.8-2.1,1.5-3.3,2.1c-1.3,0.6-2.6,0.9-4.1,0.9c-2.6,0-4.6-0.8-5.9-2.3c-1.3-1.5-2-3.6-2-6.4V23.4z"
				/>
			<path fill="#FFFFFF" d="M177.2,43.4c-1.8-1.1-2.8-2.6-2.8-4.6c0-2.1,1.4-3.9,4.2-5.3c-1.2-0.7-2.2-1.7-2.9-2.9
				c-0.7-1.2-1.1-2.7-1.1-4.5c0-1.2,0.3-2.4,0.9-3.5c0.6-1.1,1.4-2.1,2.3-3c1-0.9,2.1-1.5,3.4-2c1.3-0.5,2.6-0.7,4-0.7
				c2.1,0,3.9,0.3,5.1,0.8c1.3,0.5,2.4,1.2,3.3,1.9l6.4-2.8c0.5,0.3,0.8,0.7,1,1.2c0.2,0.5,0.3,1,0.3,1.4c0,0.9-0.3,1.4-1,1.4
				l-2.3-0.1c-0.8,0-1.8,0.1-3,0.4c1,1.3,1.5,3,1.5,4.9c0,1.3-0.3,2.6-0.9,3.7c-0.6,1.1-1.4,2.1-2.4,2.9c-1,0.8-2.3,1.4-3.7,1.9
				c-1.4,0.4-2.9,0.7-4.5,0.7c-0.9,0-1.8-0.1-2.6-0.2c-0.8-0.1-1.6-0.3-2.3-0.5c-1.1,0.5-1.9,1-2.3,1.5c-0.4,0.5-0.6,1-0.6,1.5
				c0,0.3,0.1,0.7,0.3,1c0.2,0.3,0.6,0.6,1.2,0.8c0.6,0.2,1.4,0.4,2.4,0.6c1.1,0.2,2.4,0.2,4,0.2c1.9,0,3.8,0.2,5.5,0.5
				c1.7,0.3,3.2,0.8,4.5,1.5c1.3,0.7,2.3,1.6,3.1,2.7c0.7,1.1,1.1,2.5,1.1,4.1c0,1.8-0.4,3.3-1.1,4.8c-0.7,1.4-1.7,2.6-3,3.6
				c-1.3,1-2.8,1.8-4.6,2.3c-1.8,0.5-3.7,0.8-5.8,0.8c-4,0-7.2-0.7-9.5-2.2c-2.3-1.5-3.4-3.8-3.4-7c0-0.9,0.1-1.8,0.5-2.6
				c0.3-0.8,0.7-1.5,1.1-2.2c0.5-0.6,1-1.2,1.5-1.7C176.2,44.1,176.7,43.7,177.2,43.4z M178.8,44.2c-1,1-1.6,2.2-1.7,3.7
				c0,0.3-0.1,0.7-0.1,1c0,0.3,0,0.7,0,1.1c0,0.9,0.3,1.8,0.7,2.7c0.4,0.9,1.1,1.7,1.9,2.4c0.8,0.7,1.8,1.2,3,1.7
				c1.2,0.4,2.6,0.6,4.2,0.6c3,0,5.1-0.7,6.5-2c1.4-1.3,2-2.9,2-4.9c0-0.8-0.2-1.6-0.5-2.3c-0.3-0.7-0.9-1.3-1.7-1.8
				c-0.8-0.5-1.9-0.9-3.2-1.2c-1.3-0.3-3-0.4-5-0.4c-1.1,0-2.2-0.1-3.2-0.2C180.5,44.7,179.6,44.5,178.8,44.2z M186,32.8
				c1.6,0,2.9-0.5,3.8-1.5c0.9-1,1.4-2.4,1.4-4.2c0-0.9-0.1-1.9-0.3-2.8c-0.2-0.9-0.5-1.8-1-2.5c-0.5-0.7-1.1-1.4-1.9-1.8
				c-0.8-0.5-1.8-0.7-3-0.7c-1.5,0-2.7,0.5-3.6,1.5c-0.9,1-1.3,2.3-1.3,4.1c0,1,0.1,2,0.3,2.9c0.2,1,0.5,1.8,1,2.6
				c0.5,0.8,1.1,1.4,1.8,1.9C184,32.5,184.9,32.8,186,32.8z"/>
			<path fill="#FFFFFF" d="M97.5,40.8c0,0.6,0.3,1.1,1,1.4c0.7,0.3,1.5,0.6,2.5,0.8c0.4,0.1,0.6,0.3,0.6,0.8c0,0.3,0,0.6-0.1,1
				c-1.1-0.1-2.2-0.2-3.3-0.2c-1.1-0.1-2.2-0.1-3.4-0.1c-1.3,0-2.5,0-3.6,0.1c-1.1,0.1-2.2,0.1-3.3,0.2c-0.1-0.4-0.1-0.8-0.1-1
				c0-0.4,0.2-0.7,0.5-0.8c0.9-0.2,1.8-0.4,2.6-0.7c0.8-0.3,1.2-0.8,1.2-1.5V23.4c0-1.4-0.3-2.3-0.8-2.8c-0.5-0.5-1.5-0.8-3.1-0.9
				c-0.6-0.1-0.8-0.4-0.8-0.9c0-0.3,0-0.6,0.1-0.9c0.6,0,1.3,0,2.3-0.1c1-0.1,1.9-0.1,2.7-0.2c1-0.1,1.9-0.3,2.7-0.5
				c0.8-0.2,1.3-0.3,1.7-0.3c0.4,0,0.7,0.1,0.8,0.3c0.1,0.2,0.2,0.4,0.2,0.7c0,0.7-0.1,1.6-0.2,2.5c-0.1,1-0.2,2.1-0.2,3.4l0,5.9
				l9.7-8.6c0.4-0.2,0.6-0.5,0.6-1c0-0.3-0.2-0.5-0.5-0.6c-0.3-0.1-0.7-0.2-1.1-0.2c-0.4-0.1-0.7-0.2-1.1-0.3
				c-0.3-0.1-0.5-0.4-0.5-0.8c0-0.2,0-0.4,0.1-0.8c0.3,0,1,0,2.1,0.1c1.2,0.1,2.4,0.1,3.7,0.1s2.4,0,3.5-0.1c1-0.1,1.7-0.1,2-0.1
				c0,0,0,0.1,0.1,0.3c0.1,0.2,0.1,0.3,0.1,0.5c0,0.3-0.1,0.5-0.2,0.7c-0.2,0.2-0.4,0.3-0.7,0.3c-1,0.1-1.8,0.2-2.4,0.5
				c-0.6,0.2-1.1,0.5-1.3,0.7l-9,8.1L113,40.4c0.9,1,1.7,1.7,2.5,2c0.8,0.3,1.6,0.5,2.3,0.5c0.4,0,0.6,0.3,0.6,0.8
				c0,0.1,0,0.3-0.1,0.6c0,0.3-0.1,0.5-0.1,0.6c-2.9-0.1-5.9-0.2-9-0.2L97.5,30.5h-0.1V40.8z"/>
			<path fill="#FFFFFF" d="M136.9,16.7c1.2,0,2.2,0.3,2.8,0.9c0.6,0.6,0.9,1.3,0.9,2c0,0.3,0,0.5-0.1,0.7c-0.1,0.2-0.3,0.4-0.6,0.7
				c-0.3,0.2-0.8,0.5-1.4,0.8c-0.6,0.3-1.4,0.7-2.4,1.2c-0.4-0.5-0.8-0.9-1.4-1.2c-0.5-0.3-1.1-0.5-1.8-0.5c-0.7,0-1.4,0.2-2,0.6
				c-0.6,0.4-1.1,1-1.5,1.7c-0.4,0.7-0.8,1.5-1,2.4c-0.2,0.9-0.4,1.9-0.4,2.9v11.1c0,0.9,0.5,1.6,1.5,2.1c1,0.5,2.4,0.8,4.2,1.1
				c0.4,0.1,0.6,0.3,0.6,0.8c0,0.3,0,0.6-0.1,1c-0.5,0-1.1-0.1-1.8-0.1c-0.7,0-1.4-0.1-2.2-0.1c-0.8,0-1.6-0.1-2.4-0.1
				c-0.8,0-1.6,0-2.3,0c-1.2,0-2.4,0-3.6,0.1c-1.2,0.1-2.4,0.1-3.5,0.2c-0.1-0.4-0.1-0.8-0.1-1c0-0.4,0.2-0.7,0.6-0.8
				c1-0.2,1.9-0.4,2.6-0.8c0.7-0.3,1.1-0.8,1.1-1.5V24.5c0-0.9-0.1-1.7-0.2-2.3c-0.1-0.6-0.3-1.1-0.5-1.4c-0.3-0.4-0.6-0.6-1.1-0.8
				c-0.5-0.2-1.1-0.3-1.9-0.4c-0.6-0.1-0.8-0.4-0.8-0.8c0-0.3,0-0.6,0.1-0.9c0.6,0,1.3,0,2.3-0.1c1-0.1,1.8-0.1,2.5-0.2
				c1-0.2,1.8-0.4,2.5-0.5c0.7-0.2,1.2-0.3,1.6-0.3c0.6,0,0.9,0.3,0.9,1V22c1.4-1.5,2.8-2.8,4.1-3.8
				C133.6,17.2,135.1,16.7,136.9,16.7z"/>
			<g>
				<path fill="#FFFFFF" d="M92.1,49.6v6.5c0,0.1,0,0.2,0,0.2c0,0.1,0,0.1,0.1,0.1c0,0,0.1,0.1,0.2,0.1c0.1,0,0.2,0.1,0.4,0.1
					c0.1,0,0.2,0.1,0.2,0.2c0,0,0,0.1,0,0.1c0,0,0,0.1,0,0.1c-0.3,0-0.5,0-0.8,0c-0.3,0-0.6,0-0.8,0c-0.2,0-0.5,0-0.8,0
					c-0.3,0-0.6,0-0.8,0c0,0,0-0.1,0-0.1c0,0,0-0.1,0-0.1c0-0.1,0-0.1,0-0.1c0,0,0.1-0.1,0.2-0.1c0.3,0,0.5-0.1,0.6-0.2
					c0.1-0.1,0.1-0.2,0.1-0.4v-6.5h-1.1c-0.2,0-0.4,0-0.6,0.1c-0.2,0-0.3,0.1-0.4,0.2c-0.1,0.1-0.2,0.2-0.3,0.4
					c-0.1,0.2-0.2,0.3-0.3,0.5c0,0.1-0.1,0.1-0.2,0.1c0,0-0.1,0-0.2,0c-0.1,0-0.1,0-0.1-0.1c0.1-0.2,0.1-0.4,0.1-0.5
					c0-0.2,0.1-0.3,0.1-0.5c0-0.2,0.1-0.4,0.1-0.5c0-0.1,0-0.3,0.1-0.3c0-0.1,0.1-0.1,0.2-0.1c0.1,0,0.3,0,0.5,0c0.3,0,0.6,0,1,0
					h3.8c0.4,0,0.7,0,1,0c0.3,0,0.5,0,0.5,0c0.1,0,0.2,0,0.2,0.1c0,0.1,0,0.2,0.1,0.3c0,0.1,0,0.3,0.1,0.5c0,0.1,0.1,0.3,0.1,0.5
					c0,0.2,0.1,0.3,0.2,0.5c0,0-0.1,0-0.2,0.1c-0.1,0-0.1,0-0.2,0c-0.1,0-0.2,0-0.2-0.1c-0.1-0.2-0.2-0.4-0.3-0.5
					c-0.1-0.2-0.2-0.3-0.3-0.4c-0.1-0.1-0.3-0.2-0.4-0.2c-0.2,0-0.4-0.1-0.6-0.1H92.1z"/>
				<path fill="#FFFFFF" d="M106.5,53.4h-0.5V56c0,0.2,0.1,0.3,0.2,0.4c0.2,0.1,0.4,0.1,0.8,0.2c0.1,0,0.2,0.1,0.2,0.2
					c0,0.1,0,0.1,0,0.2c-0.2,0-0.5,0-0.9,0c-0.4,0-0.7,0-1.2,0c-0.3,0-0.6,0-0.9,0c-0.3,0-0.5,0-0.8,0c0,0,0-0.1,0-0.1
					c0,0,0-0.1,0-0.1c0-0.1,0-0.2,0.1-0.2c0.2,0,0.3-0.1,0.4-0.1c0.1,0,0.2-0.1,0.2-0.1c0.1,0,0.1-0.1,0.1-0.1c0-0.1,0-0.1,0-0.2
					v-6.2c0-0.2-0.1-0.3-0.2-0.4s-0.3-0.1-0.7-0.2c0,0-0.1,0-0.1-0.1c0,0,0-0.1,0-0.2c0,0,0-0.1,0-0.1s0-0.1,0-0.1
					c0.2,0,0.5,0,0.8,0c0.3,0,0.6,0,0.8,0h1.9c0.4,0,0.8,0.1,1.2,0.2c0.3,0.1,0.6,0.3,0.9,0.5c0.2,0.2,0.4,0.4,0.6,0.7
					c0.1,0.3,0.2,0.6,0.2,0.9c0,0.4-0.1,0.8-0.4,1.2c-0.3,0.4-0.6,0.6-1.1,0.8l1.9,2.8c0.1,0.2,0.3,0.4,0.5,0.4
					c0.2,0.1,0.4,0.1,0.5,0.2c0,0,0.1,0,0.1,0.1c0,0,0,0.1,0,0.2c0,0,0,0.1,0,0.1c0,0,0,0.1,0,0.1c-0.1,0-0.2,0-0.4,0
					c-0.2,0-0.3,0-0.5,0c-0.2,0-0.4,0-0.5,0c-0.2,0-0.3,0-0.4,0c-0.2,0-0.3-0.1-0.5-0.2c-0.2-0.1-0.3-0.3-0.5-0.6L106.5,53.4z
					 M106.3,52.8c0.3,0,0.5,0,0.7-0.1c0.2,0,0.4-0.1,0.5-0.3c0.1-0.1,0.3-0.3,0.3-0.5c0.1-0.2,0.1-0.4,0.1-0.8
					c0-0.5-0.1-0.9-0.4-1.2c-0.2-0.3-0.7-0.4-1.3-0.4h-0.4v3.2H106.3z"/>
				<path fill="#FFFFFF" d="M124,54.3h-2.6l-0.6,1.7c0,0,0,0.1,0,0.1c0,0,0,0.1,0,0.1c0,0.1,0,0.2,0.1,0.2c0.1,0.1,0.3,0.1,0.5,0.1
					c0.1,0,0.2,0.1,0.2,0.2c0,0.1,0,0.1,0,0.2c-0.2,0-0.5,0-0.7,0c-0.2,0-0.5,0-0.7,0c-0.2,0-0.3,0-0.5,0c-0.2,0-0.4,0-0.6,0
					c0,0,0-0.1,0-0.1c0,0,0-0.1,0-0.1c0-0.2,0.1-0.2,0.2-0.2c0.3,0,0.4-0.1,0.5-0.2c0.1-0.1,0.2-0.2,0.3-0.3l3-7.1
					c0.1-0.1,0.2-0.2,0.3-0.2c0,0,0.1,0,0.1,0c0,0,0.1,0,0.1,0l3,7.3c0,0.1,0.1,0.2,0.3,0.3c0.1,0.1,0.3,0.1,0.5,0.1
					c0.1,0,0.2,0.1,0.2,0.2c0,0.1,0,0.1,0,0.2c-0.3,0-0.5,0-0.8,0c-0.3,0-0.5,0-0.7,0c-0.1,0-0.3,0-0.4,0c-0.2,0-0.3,0-0.5,0
					s-0.3,0-0.5,0c-0.2,0-0.3,0-0.4,0c0,0,0-0.1,0-0.1c0,0,0-0.1,0-0.1c0-0.1,0-0.1,0-0.2c0,0,0.1-0.1,0.1-0.1
					c0.2,0,0.4-0.1,0.5-0.1c0.1-0.1,0.2-0.1,0.2-0.2c0,0,0-0.1,0-0.2L124,54.3z M123.8,53.7l-1.1-2.8l-1.1,2.8H123.8z"/>
				<path fill="#FFFFFF" d="M139.8,50c0-0.1,0.1-0.2,0.1-0.3c0-0.1-0.1-0.2-0.2-0.3c-0.1-0.1-0.3-0.1-0.6-0.1
					c-0.1,0-0.1-0.1-0.1-0.2c0,0,0,0,0-0.1c0,0,0,0,0-0.1l0-0.1c0.1,0,0.2,0,0.3,0c0.1,0,0.2,0,0.4,0c0.1,0,0.3,0,0.4,0
					c0.1,0,0.2,0,0.4,0c0.2,0,0.5,0,0.7,0c0.2,0,0.4,0,0.6,0l0,0.1c0,0,0,0,0,0.1c0,0,0,0,0,0.1c0,0.2,0,0.2-0.1,0.2
					c-0.3,0-0.5,0.1-0.6,0.1c-0.1,0.1-0.2,0.2-0.3,0.3l-3.1,7.3c0,0-0.1,0-0.1,0c0,0-0.1,0-0.1,0c-0.1,0-0.1,0-0.1,0
					c0,0-0.1-0.1-0.1-0.2l-2.9-7.2c0-0.1-0.1-0.1-0.1-0.2c0,0-0.1-0.1-0.1-0.1c-0.1,0-0.1-0.1-0.2-0.1c-0.1,0-0.2,0-0.4-0.1
					c-0.1,0-0.2-0.1-0.2-0.3c0,0,0-0.1,0-0.1c0,0,0-0.1,0-0.1c0.1,0,0.3,0,0.4,0c0.2,0,0.3,0,0.5,0s0.3,0,0.5,0c0.2,0,0.3,0,0.4,0
					c0.3,0,0.6,0,0.9,0c0.3,0,0.6,0,0.9,0c0,0,0,0.1,0,0.1c0,0,0,0.1,0,0.1c0,0.1,0,0.2-0.1,0.2c-0.3,0-0.4,0.1-0.6,0.1
					c-0.1,0.1-0.2,0.1-0.2,0.2c0,0.1,0,0.1,0,0.2l1.8,4.9L139.8,50z"/>
				<path fill="#FFFFFF" d="M152.1,49.6v3h1.7c0.2,0,0.3-0.1,0.3-0.2c0.1-0.1,0.1-0.3,0.1-0.6c0-0.1,0-0.1,0.1-0.1c0,0,0.1,0,0.2,0
					c0,0,0.1,0,0.1,0c0.1,0,0.1,0,0.1,0c0,0.2,0,0.4,0,0.7c0,0.3,0,0.5,0,0.6c0,0.1,0,0.3,0,0.5c0,0.2,0,0.4,0,0.7c0,0-0.1,0-0.1,0
					c-0.1,0-0.1,0-0.1,0c-0.1,0-0.2-0.1-0.2-0.2c0-0.3-0.1-0.5-0.2-0.6c-0.1-0.1-0.2-0.2-0.3-0.2h-1.7v2.8c0,0.2,0.1,0.3,0.3,0.3
					c0.2,0.1,0.6,0.1,1.1,0.1h0.5c0.2,0,0.5,0,0.6-0.1c0.2-0.1,0.3-0.2,0.5-0.3c0.1-0.1,0.2-0.3,0.3-0.4c0.1-0.2,0.2-0.3,0.3-0.5
					c0-0.1,0.1-0.1,0.2-0.1c0,0,0.1,0,0.1,0c0.1,0,0.1,0,0.2,0.1c0,0.1,0,0.1-0.1,0.2c0,0.1,0,0.1-0.1,0.2c0,0.1-0.1,0.2-0.1,0.3
					c0,0.1,0,0.2-0.1,0.3c0,0.1,0,0.2-0.1,0.3c0,0.1,0,0.2-0.1,0.3c0,0.1,0,0.2-0.1,0.3c0,0.1,0,0.1,0,0.1c0,0.1-0.1,0.1-0.2,0.1
					c-0.1,0-0.2,0-0.3,0c-0.1,0-0.3,0-0.4,0c-0.1,0-0.3,0-0.4,0c-0.1,0-0.3,0-0.4,0h-2.8c-0.2,0-0.5,0-0.8,0c-0.3,0-0.6,0-0.8,0
					c0,0,0-0.1,0-0.1c0-0.1,0-0.1,0-0.1c0-0.1,0-0.2,0.1-0.2c0.3-0.1,0.5-0.1,0.7-0.2c0.1-0.1,0.2-0.2,0.2-0.3v-6.2
					c0-0.1,0-0.2,0-0.2c0-0.1-0.1-0.1-0.1-0.1c-0.1,0-0.2-0.1-0.3-0.1c-0.1,0-0.3-0.1-0.4-0.1c-0.1,0-0.1-0.1-0.1-0.2
					c0,0,0-0.1,0-0.1c0,0,0-0.1,0-0.1c0.4,0,0.7,0,0.9,0c0.3,0,0.5,0,0.7,0h2.5c0.4,0,0.7,0,1,0c0.3,0,0.5,0,0.5,0
					c0.1,0,0.2,0,0.2,0.1c0,0.1,0,0.2,0.1,0.4c0,0.2,0,0.4,0.1,0.6c0,0.1,0.1,0.3,0.1,0.4c0,0.1,0.1,0.3,0.1,0.5c0,0-0.1,0-0.1,0
					c0,0-0.1,0-0.1,0c-0.1,0-0.2,0-0.2-0.1c-0.1-0.2-0.2-0.4-0.3-0.6c-0.1-0.2-0.2-0.3-0.3-0.4c-0.1-0.1-0.3-0.2-0.4-0.2
					c-0.2,0-0.4-0.1-0.6-0.1H152.1z"/>
				<path fill="#FFFFFF" d="M167.1,55.9c0,0.2,0.1,0.3,0.3,0.3c0.2,0.1,0.6,0.1,1.1,0.1h0.5c0.2,0,0.4,0,0.5-0.1
					c0.2,0,0.3-0.1,0.4-0.2c0.1-0.1,0.2-0.2,0.3-0.4c0.1-0.2,0.2-0.4,0.3-0.6c0-0.1,0.1-0.1,0.2-0.1c0,0,0.1,0,0.1,0
					c0.1,0,0.1,0,0.2,0.1c-0.1,0.3-0.1,0.5-0.2,0.9c-0.1,0.3-0.1,0.6-0.1,0.9c0,0.1,0,0.2-0.1,0.2c0,0-0.1,0-0.1,0
					c-0.1,0-0.2,0-0.3,0c-0.1,0-0.2,0-0.4,0c-0.1,0-0.3,0-0.4,0c-0.1,0-0.3,0-0.4,0h-2.8c-0.2,0-0.5,0-0.8,0c-0.3,0-0.6,0-0.8,0
					c0,0,0-0.1,0-0.1c0-0.1,0-0.1,0-0.1c0-0.1,0-0.2,0.1-0.2c0.3-0.1,0.5-0.1,0.7-0.2c0.1-0.1,0.2-0.2,0.2-0.3v-6.2
					c0-0.1,0-0.2,0-0.2c0-0.1,0-0.1-0.1-0.1c0,0-0.1-0.1-0.2-0.1c-0.1,0-0.2-0.1-0.4-0.1c-0.1,0-0.1-0.1-0.1-0.2c0,0,0-0.1,0-0.1
					c0,0,0-0.1,0-0.1c0.3,0,0.5,0,0.8,0c0.3,0,0.6,0,0.8,0c0.1,0,0.2,0,0.4,0c0.1,0,0.3,0,0.5,0s0.3,0,0.5,0s0.3,0,0.4,0
					c0,0,0,0.1,0,0.1c0,0,0,0.1,0,0.1c0,0.1,0,0.2-0.1,0.2c-0.4,0-0.6,0.1-0.7,0.2c-0.1,0.1-0.2,0.2-0.2,0.4V55.9z"/>
			</g>
		</g>
	</g>
</g>
</svg>
